<svg width="32" height="32" viewBox="0 0 32 32" fill="none" xmlns="http://www.w3.org/2000/svg">
<path d="M16 32C24.8366 32 32 24.8366 32 16C32 7.16344 24.8366 0 16 0C7.16344 0 0 7.16344 0 16C0 24.8366 7.16344 32 16 32Z" fill="#12151B"/>
<path d="M20.2299 16.9674L17.3727 15.2767C17.1091 15.1207 16.767 15.2047 16.6086 15.4643L11.9105 23.1644C11.5899 23.69 12.2533 24.2587 12.7376 23.8735L20.293 17.864C20.5939 17.6247 20.5615 17.1636 20.2299 16.9674Z" fill="white"/>
<path d="M11.2701 15.5326L14.1273 17.2233C14.3909 17.3793 14.733 17.2953 14.8914 17.0357L19.5895 9.33557C19.9101 8.81004 19.2467 8.24132 18.7624 8.62655L11.207 14.636C10.9061 14.8753 10.9385 15.3364 11.2701 15.5326Z" fill="white"/>
</svg>
